<?xml version="1.0" encoding="utf-8"?>
<!-- Generator: Adobe Illustrator 24.0.3, SVG Export Plug-In . SVG Version: 6.00 Build 0)  -->
<svg version="1.1" xmlns="http://www.w3.org/2000/svg" xmlns:xlink="http://www.w3.org/1999/xlink" x="0px" y="0px"
	 viewBox="0 0 449.2 498" style="enable-background:new 0 0 449.2 498;" xml:space="preserve">
<style type="text/css">
	.st0{fill:#FFFFFF;stroke:#FFFFFF;stroke-width:3;stroke-miterlimit:10;}
	.st1{fill:none;stroke:#00FF00;stroke-width:5;stroke-miterlimit:10;}
</style>
<g id="Layer_2">
</g>
<g id="Layer_1">
	<g id="rx">
		<g id="logo">
			<path class="st0" d="M180.8,18.2c22.5,0,104.6,5.5,104.6,86.1c0,50.5-30.3,71.8-60.7,82.1c0,0,16.7,7.6,25.1,19.5
				s75.3,105.2,75.3,105.2L353,277h-16.7v-31.1h101.8V277h-9.8c0,0-0.5,0-1.5,0c-4.8,0-19.9,1-29.2,13.4c-11.2,14.8-46,57.8-46,57.8
				l61.4,75.6c0,0,7,8.9,18.1,8.9s16.7,1.4,16.7,1.4v46h-61.4c0,0-41.9-1.5-57.2-22.2s-32.1-44.5-32.1-44.5l-25.1,35.6h23.7v31.1
				H184.2v-31.1c0,0,0.6,0,1.7,0c6.1,0,26.9-1.1,38.7-14.9c14-16.3,47.4-56.3,47.4-56.3l-96.2-139.3c0,0-22.3-32.6-40.5-32.6h-10.4
				v100.8c0,0,0.6,11.9,7.6,13.4s29.3,1.5,29.3,1.5v32.6H2.9v-32.6c0,0,5.9,0.4,12.6,0.4s14-0.4,16.7-1.9c5.6-3,5.6-19.3,5.6-19.3
				V63.5c0,0,2.7-13.3-19.6-13.3H1.3l0.2-31.9h173.7C175.2,18.3,177.2,18.2,180.8,18.2 M124.9,157.7c68.4-1.5,71.1-23.7,69.8-56.3
				s-22.3-47.4-47.4-47.4s-22.4,8.9-22.4,8.9V157.7 M180.8,16.9L180.8,16.9c-3.3,0-5.4,0.1-5.7,0.1H0.2v1.2L0,50.2v1.3h18.2
				c8,0,13.6,1.8,16.4,5.2c1.5,1.9,2.2,4.3,1.9,6.7v0.1v237.3c0,4.3-0.9,16-4.9,18.2c-1.2,0.6-4.9,1.7-16.2,1.7
				c-6.5,0-12.4-0.4-12.5-0.4l-1.3-0.1v35.2h161.5v-35.1h-1.2c-0.2,0-22.3,0-29-1.5c-5.8-1.2-6.5-11.5-6.6-12.1v-99.5h9.1
				c17.3,0,39.2,31.7,39.4,32.1l95.7,138.6c-4.6,5.5-34.1,40.7-46.8,55.6c-11.4,13.4-31.8,14.4-37.8,14.4c-1.1,0-1.7,0-1.7,0
				l-1.3-0.1v33.7h114.1v-33.7h-22.5l22.7-32.2c3.9,5.5,18.1,25.4,31.1,43c15.5,21,56.4,22.7,58.2,22.7h62.7v-48.2l-0.9-0.2
				c-0.2-0.1-5.9-1.5-17.1-1.5c-10.4,0-17.1-8.3-17.2-8.4l-60.8-74.8c4.8-5.9,35.2-43.5,45.4-57.1c9-12,23.9-12.9,28.2-12.9
				c0.9,0,1.4,0,1.4,0h11.1v-33.6H335.1v33.6h15.4L325.2,309c-8.2-11.4-66.6-93-74.4-103.9c-6.5-9.2-17.8-15.9-22.9-18.6
				c16.9-6.1,29.9-14.4,39.5-25.3c12.8-14.5,19.3-33.7,19.3-57c0-18.9-4.5-35.1-13.4-48.2c-7.4-10.9-17.9-19.7-31.1-26.2
				c-23.8-11.7-50.8-13-61.3-13L180.8,16.9z M126.2,156.4V62.6l-0.1-0.2c-0.1-0.9,0.2-1.8,0.8-2.4c1.4-1.8,5.9-4.8,20.4-4.8
				c12.8,0,23.8,3.9,31.8,11.2c8.9,8.1,13.8,19.9,14.4,35.1c0.7,15.7,0.5,29.5-8.5,39.1C175.5,150.6,156.9,155.6,126.2,156.4
				L126.2,156.4z"/>
		</g>
	</g>
	<g id="face">
		<polygon id="outline" class="st1" points="69.4,268.5 80.4,313.5 69.4,347.5 75.4,365.5 80.4,426.5 127.4,480.5 186.4,495.5 
			227.4,491.5 275.4,489.5 321.4,455.5 347.4,441.5 356.4,393.5 347.4,338.5 350.4,285.5 367.4,274.5 377.4,249.5 370.4,185.5 
			354.4,114.5 322.4,50.5 254.4,11.5 227.4,2.5 195.4,2.5 143.4,23.5 109.4,63.5 75.4,100.5 53.4,154.5 53.4,203.5 61.4,248.5 		"/>
		<polygon id="inline" class="st1" points="105.4,103.5 96.4,136.5 105.4,164.5 96.4,196.5 89.4,260.5 97.4,315.5 123.4,366.5 
			159.4,406.5 177.4,423.5 197.4,435.5 215.4,435.5 244.4,420.5 265.4,386.5 285.4,367.5 297.4,331.5 320.4,310.5 336.4,269.5 
			336.4,235.5 332.4,217.5 310.4,189.5 304.4,173.5 253.4,154.5 208.4,146.5 182.4,129.5 170.4,107.5 147.4,94.5 118.4,89.5 		"/>
		<g id="grid">
			<g id="vert">
				<line class="st1" x1="177.5" y1="120.5" x2="355.8" y2="120.5"/>
				<polyline class="st1" points="67.4,262.5 67.4,120.5 100.8,120.5 				"/>
				<polyline class="st1" points="90.4,437 90.4,84.5 339.2,84.5 				"/>
				<line class="st1" x1="113.6" y1="345.5" x2="114.4" y2="466"/>
				<polyline class="st1" points="113.6,94.7 113.6,58.6 326.2,58.6 				"/>
				<line class="st1" x1="148.4" y1="394.3" x2="148.4" y2="485.3"/>
				<line class="st1" x1="148.4" y1="21.5" x2="148.4" y2="94.5"/>
				<line class="st1" x1="190.4" y1="431.3" x2="190.4" y2="495.1"/>
				<line class="st1" x1="190.4" y1="4.5" x2="190.4" y2="134.7"/>
				<line class="st1" x1="238.9" y1="424.2" x2="238.9" y2="490.9"/>
				<line class="st1" x1="238.9" y1="6.3" x2="238.9" y2="151.5"/>
				<line class="st1" x1="275.1" y1="377.6" x2="275.1" y2="490.5"/>
				<line class="st1" x1="275.1" y1="23.4" x2="275.1" y2="162.6"/>
				<line class="st1" x1="309.3" y1="320.6" x2="309.3" y2="463.2"/>
				<line class="st1" x1="309.3" y1="43" x2="309.3" y2="184.5"/>
				<line class="st1" x1="361.6" y1="146.4" x2="361.6" y2="274.5"/>
				<path class="st1" d="M72.9,108.3"/>
				<line class="st1" x1="253.4" y1="154.5" x2="363.7" y2="154.5"/>
				<line class="st1" x1="53.4" y1="154.5" x2="102.2" y2="154.5"/>
				<line class="st1" x1="310.4" y1="191.5" x2="371.1" y2="191.5"/>
				<line class="st1" x1="53.4" y1="191.5" x2="97.9" y2="191.5"/>
				<line class="st1" x1="336.4" y1="231" x2="375.4" y2="231"/>
				<line class="st1" x1="58.3" y1="231" x2="92.6" y2="231"/>
				<line class="st1" x1="334.5" y1="274.5" x2="367.4" y2="274.5"/>
				<line class="st1" x1="70.9" y1="274.5" x2="92.6" y2="274.5"/>
				<line class="st1" x1="317.1" y1="313.5" x2="348.8" y2="313.5"/>
				<line class="st1" x1="81.4" y1="313.5" x2="97.4" y2="313.5"/>
				<line class="st1" x1="292.8" y1="347.5" x2="348.8" y2="347.5"/>
				<line class="st1" x1="69.4" y1="347.5" x2="114.4" y2="347.5"/>
				<line class="st1" x1="272.2" y1="381.2" x2="354.4" y2="381.2"/>
				<line class="st1" x1="76.7" y1="381.2" x2="136.6" y2="381.2"/>
				<line class="st1" x1="246" y1="416.7" x2="352" y2="416.7"/>
				<line class="st1" x1="79.6" y1="416.7" x2="170.2" y2="416.7"/>
				<polyline class="st1" points="99.3,446.4 337.4,446.4 337.4,80 				"/>
				<line class="st1" x1="122.1" y1="474.4" x2="294.8" y2="474.4"/>
			</g>
			<g id="hori">
				<path class="st1" d="M131.1,38"/>
				<line class="st1" x1="135.6" y1="32.7" x2="291.3" y2="32.7"/>
				<path class="st1" d="M119.9,51.1"/>
			</g>
		</g>
		<g id="glasses">
			<polygon id="left-eye" class="st1" points="93.4,193.5 78.4,213.5 78.4,229.5 86.4,258.5 100.4,270.5 126.4,277.5 154.4,272.5 
				173.4,262.5 183.4,246.5 190.4,219.5 190.4,204.5 180.4,193.5 158.4,186.5 134.4,184.5 104.4,187.5 			"/>
			<polygon id="right-eye" class="st1" points="223.4,207.5 224.4,222.5 232.4,246.5 245.4,265.5 265.4,274.5 292.4,274.5 
				316.4,269.5 328.4,257.5 336.4,235.5 336.4,218.5 330.4,201.5 316.4,190.5 284.4,187.5 261.4,187.5 234.4,194.5 225.4,200.5 			
				"/>
			<line id="top-bar" class="st1" x1="134.4" y1="184.5" x2="284.4" y2="187.5"/>
			<polyline id="nose-bar" class="st1" points="190.4,212.5 203.4,210.5 212.4,210.5 223.4,212.5 			"/>
			<polyline id="left-thing" class="st1" points="78.4,213.5 67.4,213.5 67.4,219.5 78.4,219.5 			"/>
			<polyline id="right-thing" class="st1" points="336.4,215.4 346.4,215.5 346.4,222.5 336.4,222.5 			"/>
		</g>
	</g>
</g>
</svg>
