<?xml version="1.0" encoding="utf-8"?>
<!-- Generator: Adobe Illustrator 24.0.3, SVG Export Plug-In . SVG Version: 6.00 Build 0)  -->
<svg version="1.1" xmlns="http://www.w3.org/2000/svg" xmlns:xlink="http://www.w3.org/1999/xlink" x="0px" y="0px"
	 viewBox="0 0 1279 523" style="enable-background:new 0 0 1279 523;" xml:space="preserve">
<style type="text/css">
	.st0{fill:none;stroke:#FFFFFF;stroke-width:2;stroke-miterlimit:10;}
	.st1{fill:none;stroke:#00FF00;stroke-width:3;stroke-miterlimit:10;}
</style>
<g id="Layer_3">
	<g>
		<path class="st0" d="M301,295.6c0-23.2,13.4-36.4,35-36.4c18.6,0,32.7,12.1,32.7,29.6h-19.8c-0.5-8-5.7-13.3-12.9-13.3
			c-8.5,0-13.9,7.5-13.9,20.1c0,12.7,5.3,20.3,13.9,20.3c7.1,0,12.3-5.2,12.9-13.4h19.8c-0.1,17.6-13.8,29.6-32.8,29.6
			C314.4,332,301,318.8,301,295.6z"/>
		<path class="st0" d="M426.3,330.8h-49.7v-70.5h49.7v16.5h-29v11.4h27.2V303h-27.2v11.3h29V330.8z"/>
		<path class="st0" d="M484.3,330.8h-48.3v-70.5h20.7v54h27.6V330.8z"/>
		<path class="st0" d="M541.8,330.8h-49.7v-70.5h49.7v16.5h-29v11.4H540V303h-27.2v11.3h29V330.8z"/>
		<path class="st0" d="M551.5,330.8v-70.5h34.6c14.4,0,22.9,6.6,22.9,17.6c0,8.1-6.2,14.2-14.3,15.2v0.4c9.5,0.2,17.5,7.4,17.5,16.7
			c0,12.4-9.8,20.5-24.9,20.5H551.5z M572.2,288.6h8c5.3,0,8.6-2.8,8.6-7c0-4.3-3.1-7-8.3-7h-8.3V288.6z M581,316.6
			c6.4,0,10.1-2.9,10.1-8.2c0-5-3.7-8-9.9-8h-9v16.2H581z"/>
		<path class="st0" d="M639.6,330.8h-20.7v-70.5h31.3c18.8,0,28.5,8.8,28.5,23.9c0,8.3-4,16.3-11.4,19.8l13.4,26.7h-23.1l-11.1-23.6
			h-6.8V330.8z M639.6,293.5h8.5c5.8,0,9.4-3.6,9.4-8.9c0-5.2-3.8-9-9.3-9h-8.6V293.5z"/>
		<path class="st0" d="M729.9,316.8h-21.5l-3.7,14h-21.1l23-70.5h26l23,70.5h-22.1L729.9,316.8z M712.2,302.2h14l-6.8-25.6h-0.4
			L712.2,302.2z"/>
		<path class="st0" d="M768.5,330.8v-54H750v-16.5h57.8v16.5h-18.6v54H768.5z"/>
		<path class="st0" d="M880.8,295.6c0,22.5-13.7,36.4-35.5,36.4c-21.8,0-35.5-13.9-35.5-36.4c0-22.5,13.7-36.5,35.5-36.5
			S880.8,273.1,880.8,295.6z M830.9,295.6c0,12.2,5.7,19.9,14.4,19.9s14.4-7.8,14.4-19.9c0-12.2-5.8-20-14.4-20
			S830.9,283.4,830.9,295.6z"/>
		<path class="st0" d="M909.5,330.8h-20.7v-70.5h31.3c18.8,0,28.5,8.8,28.5,23.9c0,8.3-4,16.3-11.4,19.8l13.4,26.7h-23.1l-11.1-23.6
			h-6.8V330.8z M909.5,293.5h8.5c5.8,0,9.4-3.6,9.4-8.9c0-5.2-3.8-9-9.3-9h-8.6V293.5z"/>
		<path class="st0" d="M974.7,330.8v-22.3l-24.1-48.1h22.1l12.4,28.6h0.4l12.4-28.6h21.6l-24.1,48.1v22.3H974.7z"/>
	</g>
</g>
<g id="dart">
	<polyline class="st1" points="726,186.5 457.2,474.5 485,500.5 750.4,216.1 	"/>
	<line class="st1" x1="529.2" y1="397.4" x2="557" y2="423.3"/>
	<line class="st1" x1="507.2" y1="420.9" x2="535" y2="446.8"/>
	<line class="st1" x1="485.5" y1="444.2" x2="513.3" y2="470.2"/>
	<line class="st1" x1="543.1" y1="410.3" x2="471.1" y2="487.5"/>
	<path class="st1" d="M721.6,191.2"/>
	<path class="st1" d="M749.4,217.2"/>
	<path class="st1" d="M721.9,190.9"/>
	<path class="st1" d="M749.7,216.8"/>
	<path class="st1" d="M721.9,190.9"/>
	<polyline class="st1" points="726,186.5 727.6,190.7 734.1,194 738.6,202.4 744.4,205 746.8,214.1 750.4,216.1 	"/>
	<polyline class="st1" points="767.5,196.5 799.5,158.5 776.5,129.5 811.5,87.5 801.5,57.5 	"/>
	<polyline class="st1" points="761.5,174.5 754.5,121.5 774.5,95.5 761.5,83.5 777.5,57.5 	"/>
	<polyline class="st1" points="738.5,170.5 721.5,118.5 745.5,57.5 733.5,27.5 	"/>
</g>
</svg>
