<?xml version="1.0" encoding="utf-8"?>
<!-- Generator: Adobe Illustrator 24.0.3, SVG Export Plug-In . SVG Version: 6.00 Build 0)  -->
<svg version="1.1" id="Layer_2" xmlns="http://www.w3.org/2000/svg" xmlns:xlink="http://www.w3.org/1999/xlink" x="0px" y="0px"
	 viewBox="0 0 1226 600" style="enable-background:new 0 0 1226 600;" xml:space="preserve">
<style type="text/css">
	.st0{fill:none;stroke:#FFFFFF;stroke-miterlimit:10;}
	.st1{fill:none;stroke:#00FF00;stroke-width:2;stroke-miterlimit:10;}
</style>
<g>
	<path class="st0" d="M381.8,219c59.6,0,94.6,34.6,94.6,97.5c0,63-35.1,99.8-94.6,99.8h-80.1V219H381.8z M351.9,375.8h23.4
		c32.7,0,50.2-19.8,50.2-59.2c0-37.1-18.5-57.1-50.2-57.1h-23.4V375.8z"/>
	<path class="st0" d="M500.8,416.2V219h50.2v197.3H500.8z"/>
	<path class="st0" d="M575.3,317.5c0-64.4,37.1-102,95.8-102c49.9,0,87.8,32.1,89.3,78.8h-48.3c-2.5-23.2-19-38.6-41-38.6
		c-27.3,0-44.7,23.4-44.7,61.7c0,38.7,17.2,62.1,44.8,62.1c22,0,38-14.5,41.2-37.6h48.3c-2.3,46.9-38.7,77.8-89.6,77.8
		C612,419.7,575.3,382.1,575.3,317.5z"/>
	<path class="st0" d="M919.4,416.2H784.2V219h135.2v40.5h-85v39.2h80v36.9h-80v40.2h85V416.2z"/>
</g>
<polygon class="st1" points="609,270 609,490 779,398 779,193 "/>
<polyline class="st1" points="609,270 438,193 438,409 609,490 "/>
<polyline class="st1" points="438,193 608,107 779,193 "/>
<polygon class="st1" points="584.4,277.6 596.1,299.3 583.1,320.2 558.6,319.4 546.9,297.7 559.9,276.8 "/>
<polygon class="st1" points="541.7,330.3 541.3,356.3 518.6,369 496.3,355.7 496.7,329.7 519.4,317 "/>
<polygon class="st1" points="483.8,368.8 488.7,391.6 471.4,407.3 449.2,400.2 444.3,377.4 461.6,361.7 "/>
<polygon class="st1" points="671.7,288.2 677.6,312.6 659.4,329.9 635.3,322.8 629.4,298.4 647.6,281.1 "/>
<polygon class="st1" points="755.8,352.4 766.3,373.3 753.6,392.8 730.2,391.6 719.7,370.7 732.4,351.2 "/>
<polygon class="st1" points="611.1,216.7 620.3,231.4 612.2,246.6 594.9,247.3 585.7,232.6 593.8,217.4 "/>
<polygon class="st1" points="668.1,187.5 677,203.1 667.9,218.6 649.9,218.5 641,202.9 650.1,187.4 "/>
<polygon class="st1" points="714.9,169.3 720.9,181.3 713.5,192.5 700.1,191.7 694.1,179.7 701.5,168.5 "/>
<polygon class="st1" points="610.1,124.9 622,125.6 627.3,136.1 620.9,146.1 609,145.4 603.7,134.9 "/>
<polygon class="st1" points="567.3,149.9 574,161.6 567.1,173.2 553.7,173.1 547,161.4 553.9,149.8 "/>
<polygon class="st1" points="512.5,179.1 519.9,192 512.4,204.9 497.5,204.9 490.1,192 497.6,179.1 "/>
</svg>
