<svg xmlns="http://www.w3.org/2000/svg" viewBox="0 0 449.16 498.03"><defs><style>.cls-1{fill:#fff;}.cls-2{fill:none;stroke:lime;stroke-miterlimit:10;stroke-width:5px;}</style></defs><title>Untitled-1</title><g id="rx"><g id="logo"><path class="cls-1" d="M198.89,30.18c22.49,0,104.58,5.53,104.58,86.12,0,50.54-30.32,71.81-60.69,82.05,0,0,16.74,7.63,25.11,19.49s75.34,105.24,75.34,105.24L371.13,289H354.39V257.86H456.23V289h-9.76s-.54,0-1.5,0c-4.78,0-19.89,1-29.19,13.38-11.17,14.82-46,57.81-46,57.81l61.38,75.6s7,8.89,18.14,8.89S466,446.12,466,446.12v45.95H404.61s-41.85-1.48-57.2-22.24-32.08-44.47-32.08-44.47l-25.12,35.58h23.72v31.13H202.32V460.94s.63,0,1.74,0c6.12,0,26.92-1.06,38.72-14.85,14-16.31,47.43-56.33,47.43-56.33L194,250.45s-22.32-32.61-40.46-32.61H143.14V318.63s.59,11.86,7.56,13.35,29.3,1.48,29.3,1.48v32.61H21V333.46s5.93.37,12.56.37,14-.37,16.74-1.85c5.58-3,5.58-19.27,5.58-19.27V75.53S58.62,62.19,36.3,62.19H19.35l.21-31.87H193.25s2.07-.14,5.64-.14M143,169.66c68.36-1.48,71.15-23.72,69.75-56.33S190.46,65.9,165.35,65.9,143,74.79,143,74.79v94.87M198.89,28.93h0c-3.33,0-5.35.12-5.68.14H18.32v1.24L18.1,62.18v1.26H36.3c8,0,13.64,1.79,16.43,5.18a8.53,8.53,0,0,1,1.88,6.66l0,.12V312.71c0,4.32-.89,16-4.91,18.16-1.2.64-4.9,1.71-16.16,1.71-6.51,0-12.42-.37-12.48-.37l-1.33-.08v35.19H181.25V332.21H180c-.22,0-22.27,0-29-1.46-5.8-1.23-6.53-11.55-6.57-12.15V219.09h9.1c17.28,0,39.21,31.74,39.43,32.06l95.72,138.56c-4.61,5.52-34.06,40.69-46.81,55.59-11.45,13.38-31.8,14.42-37.77,14.42-1.06,0-1.66,0-1.67,0l-1.32-.07v33.7H315.18V459.69H292.63l22.7-32.16c3.87,5.46,18.06,25.43,31.08,43.05,15.53,21,56.43,22.68,58.16,22.74h62.68V445.15l-.93-.24c-.23-.06-5.87-1.53-17.06-1.53-10.4,0-17.09-8.33-17.16-8.41l-60.75-74.83c4.8-5.93,35.21-43.49,45.42-57.06,9-11.95,23.86-12.88,28.2-12.88.89,0,1.4,0,1.4,0h11.11V256.61H353.14v33.63h15.35L343.29,321c-8.2-11.44-66.65-93-74.38-103.91-6.52-9.24-17.76-15.86-22.91-18.57,16.92-6.09,29.85-14.38,39.45-25.29,12.79-14.51,19.27-33.68,19.27-57,0-18.87-4.51-35.07-13.4-48.16-7.39-10.9-17.88-19.73-31.15-26.24-23.84-11.7-50.79-13-61.28-13ZM144.28,168.38V74.6l-.06-.18A3.06,3.06,0,0,1,145,72c1.39-1.81,5.89-4.83,20.4-4.83,12.77,0,23.75,3.86,31.77,11.16,8.92,8.12,13.77,19.92,14.42,35.07.67,15.7.49,29.47-8.54,39.1-9.42,10.05-28.1,15.11-58.72,15.9Z" transform="translate(-18.09 -12)"/></g></g><g id="face"><polygon id="outline" class="cls-2" points="69.41 268.5 80.41 313.5 69.41 347.5 75.41 365.5 80.41 426.5 127.41 480.5 186.41 495.5 227.41 491.5 275.41 489.5 321.41 455.5 347.41 441.5 356.41 393.5 347.41 338.5 350.41 285.5 367.41 274.5 377.41 249.5 370.41 185.5 354.41 114.5 322.41 50.5 254.41 11.5 227.41 2.5 195.41 2.5 143.41 23.5 109.41 63.5 75.41 100.5 53.41 154.5 53.41 203.5 61.41 248.5 69.41 268.5"/><polygon id="inline" class="cls-2" points="105.41 103.5 96.41 136.5 105.41 164.5 96.41 196.5 89.41 260.5 97.41 315.5 123.41 366.5 159.41 406.5 177.41 423.5 197.41 435.5 215.41 435.5 244.41 420.5 265.41 386.5 285.41 367.5 297.41 331.5 320.41 310.5 336.41 269.5 336.41 235.5 332.41 217.5 310.41 189.5 304.41 173.5 253.41 154.5 208.41 146.5 182.41 129.5 170.41 107.5 147.41 94.5 118.41 89.5 105.41 103.5"/><g id="grid"><g id="vert"><line class="cls-2" x1="177.5" y1="120.5" x2="355.76" y2="120.5"/><polyline class="cls-2" points="67.41 262.5 67.41 120.5 100.77 120.5"/><polyline class="cls-2" points="90.41 437 90.41 84.5 339.23 84.5"/><line class="cls-2" x1="113.57" y1="345.48" x2="114.41" y2="466"/><polyline class="cls-2" points="113.58 94.71 113.58 58.6 326.16 58.6"/><line class="cls-2" x1="148.38" y1="394.26" x2="148.38" y2="485.31"/><line class="cls-2" x1="148.38" y1="21.49" x2="148.38" y2="94.5"/><line class="cls-2" x1="190.41" y1="431.3" x2="190.41" y2="495.11"/><line class="cls-2" x1="190.41" y1="4.52" x2="190.41" y2="134.73"/><line class="cls-2" x1="238.91" y1="424.23" x2="238.91" y2="490.93"/><line class="cls-2" x1="238.91" y1="6.33" x2="238.91" y2="151.53"/><line class="cls-2" x1="275.09" y1="377.64" x2="275.09" y2="490.5"/><line class="cls-2" x1="275.09" y1="23.36" x2="275.09" y2="162.58"/><line class="cls-2" x1="309.34" y1="320.61" x2="309.34" y2="463.2"/><line class="cls-2" x1="309.34" y1="43" x2="309.34" y2="184.5"/><line class="cls-2" x1="361.6" y1="146.43" x2="361.6" y2="274.5"/><path class="cls-2" d="M91,120.26" transform="translate(-18.09 -12)"/><line class="cls-2" x1="253.41" y1="154.5" x2="363.74" y2="154.5"/><line class="cls-2" x1="53.41" y1="154.5" x2="102.19" y2="154.5"/><line class="cls-2" x1="310.41" y1="191.5" x2="371.07" y2="191.5"/><line class="cls-2" x1="53.41" y1="191.5" x2="97.95" y2="191.5"/><line class="cls-2" x1="336.41" y1="231" x2="375.39" y2="231"/><line class="cls-2" x1="58.3" y1="231" x2="92.64" y2="231"/><line class="cls-2" x1="334.46" y1="274.5" x2="367.41" y2="274.5"/><line class="cls-2" x1="70.88" y1="274.5" x2="92.64" y2="274.5"/><line class="cls-2" x1="317.12" y1="313.5" x2="348.82" y2="313.5"/><line class="cls-2" x1="81.41" y1="313.5" x2="97.41" y2="313.5"/><line class="cls-2" x1="292.75" y1="347.5" x2="348.82" y2="347.5"/><line class="cls-2" x1="69.41" y1="347.5" x2="114.41" y2="347.5"/><line class="cls-2" x1="272.24" y1="381.2" x2="354.4" y2="381.2"/><line class="cls-2" x1="76.7" y1="381.2" x2="136.64" y2="381.2"/><line class="cls-2" x1="246.01" y1="416.74" x2="352.05" y2="416.74"/><line class="cls-2" x1="79.61" y1="416.74" x2="170.25" y2="416.74"/><polyline class="cls-2" points="99.31 446.42 337.41 446.42 337.41 80"/><line class="cls-2" x1="122.14" y1="474.44" x2="294.79" y2="474.44"/></g><g id="hori"><path class="cls-2" d="M149.17,50" transform="translate(-18.09 -12)"/><line class="cls-2" x1="135.63" y1="32.65" x2="291.29" y2="32.65"/><path class="cls-2" d="M138,63.12" transform="translate(-18.09 -12)"/></g></g><g id="glasses"><polygon id="left-eye" class="cls-2" points="93.41 193.5 78.41 213.5 78.41 229.5 86.41 258.5 100.41 270.5 126.41 277.5 154.41 272.5 173.41 262.5 183.41 246.5 190.41 219.5 190.41 204.5 180.41 193.5 158.41 186.5 134.41 184.5 104.41 187.5 93.41 193.5"/><polygon id="right-eye" class="cls-2" points="223.41 207.5 224.41 222.5 232.41 246.5 245.41 265.5 265.41 274.5 292.41 274.5 316.41 269.5 328.41 257.5 336.41 235.5 336.41 218.5 330.41 201.5 316.41 190.5 284.41 187.5 261.41 187.5 234.41 194.5 225.41 200.5 223.41 207.5"/><line id="top-bar" class="cls-2" x1="134.41" y1="184.5" x2="284.41" y2="187.5"/><polyline id="nose-bar" class="cls-2" points="190.41 212.5 203.41 210.5 212.41 210.5 223.41 212.5"/><polyline id="left-thing" class="cls-2" points="78.41 213.5 67.41 213.5 67.41 219.5 78.41 219.5"/><polyline id="right-thing" class="cls-2" points="336.41 215.45 346.41 215.5 346.41 222.5 336.41 222.5"/></g></g></svg>