<?xml version="1.0" encoding="utf-8"?>
<!-- Generator: Adobe Illustrator 24.0.3, SVG Export Plug-In . SVG Version: 6.00 Build 0)  -->
<svg version="1.1" xmlns="http://www.w3.org/2000/svg" xmlns:xlink="http://www.w3.org/1999/xlink" x="0px" y="0px"
	 viewBox="0 0 885 600" style="enable-background:new 0 0 885 600;" xml:space="preserve">
<style type="text/css">
	.st0{fill:none;stroke:#00FF00;stroke-width:3;stroke-miterlimit:10;}
	.st1{fill:none;stroke:#FFFFFF;stroke-width:2;stroke-miterlimit:10;}
</style>
<g id="Layer_3">
</g>
<g id="Layer_2">
	<rect x="342.5" y="51.5" class="st0" width="227" height="483"/>
	<rect x="474.5" y="85.5" class="st0" width="56" height="162"/>
	<rect x="377.5" y="319.5" class="st0" width="56" height="182"/>
	<rect x="474.5" y="319.5" class="st0" width="56" height="182"/>
	<rect x="377.5" y="85.5" class="st0" width="56" height="162"/>
	<path class="st0" d="M377.5,269.5"/>
	<polygon class="st0" points="400.4,270.5 383.6,270.5 375.3,285 383.6,299.5 400.4,299.5 408.7,285 	"/>
	<path class="st0" d="M342.5,85.5"/>
</g>
<g id="Layer_4">
	<line class="st0" x1="342.5" y1="85.5" x2="569.5" y2="85.5"/>
	<line class="st0" x1="342.5" y1="319.5" x2="569.5" y2="319.5"/>
	<line class="st0" x1="342.5" y1="501.5" x2="569.5" y2="501.5"/>
	<line class="st0" x1="530.5" y1="362.6" x2="569.5" y2="362.6"/>
	<line class="st0" x1="434" y1="362.6" x2="474.5" y2="362.6"/>
	<line class="st0" x1="342.5" y1="362.6" x2="373.5" y2="362.6"/>
	<line class="st0" x1="530.5" y1="402.1" x2="569.5" y2="402.1"/>
	<line class="st0" x1="434" y1="402.1" x2="474.5" y2="402.1"/>
	<line class="st0" x1="342.5" y1="402.1" x2="377.5" y2="402.1"/>
	<line class="st0" x1="530.5" y1="438.8" x2="569.5" y2="438.8"/>
	<line class="st0" x1="433.5" y1="438.8" x2="474.5" y2="438.8"/>
	<line class="st0" x1="342.5" y1="438.8" x2="377.5" y2="438.8"/>
	<line class="st0" x1="530.5" y1="467.5" x2="569.5" y2="467.5"/>
	<line class="st0" x1="434" y1="467.5" x2="474.5" y2="467.5"/>
	<line class="st0" x1="342.5" y1="467.5" x2="377.5" y2="467.5"/>
	<line class="st0" x1="345.5" y1="257.5" x2="572.5" y2="257.5"/>
	<line class="st0" x1="533.5" y1="118.6" x2="572.5" y2="118.6"/>
	<line class="st0" x1="437" y1="118.6" x2="477.5" y2="118.6"/>
	<line class="st0" x1="345.5" y1="118.6" x2="376.5" y2="118.6"/>
	<line class="st0" x1="533.5" y1="158.1" x2="572.5" y2="158.1"/>
	<line class="st0" x1="437" y1="158.1" x2="477.5" y2="158.1"/>
	<line class="st0" x1="345.5" y1="158.1" x2="380.5" y2="158.1"/>
	<line class="st0" x1="533.5" y1="194.8" x2="572.5" y2="194.8"/>
	<line class="st0" x1="436.5" y1="194.8" x2="477.5" y2="194.8"/>
	<line class="st0" x1="345.5" y1="194.8" x2="380.5" y2="194.8"/>
	<line class="st0" x1="533.5" y1="223.5" x2="572.5" y2="223.5"/>
	<line class="st0" x1="437" y1="223.5" x2="477.5" y2="223.5"/>
	<line class="st0" x1="345.5" y1="223.5" x2="380.5" y2="223.5"/>
	<line class="st0" x1="406.5" y1="284.5" x2="569.5" y2="284.5"/>
	<line class="st0" x1="342.5" y1="284.5" x2="373.5" y2="284.5"/>
	<line class="st0" x1="502.5" y1="247.5" x2="502.5" y2="319.5"/>
	<line class="st0" x1="377.5" y1="50.5" x2="377.5" y2="534.5"/>
	<line class="st0" x1="433.5" y1="51.5" x2="433.5" y2="534.5"/>
	<line class="st0" x1="476.5" y1="50.5" x2="476.5" y2="534.5"/>
	<line class="st0" x1="533.5" y1="51.5" x2="530.5" y2="534.5"/>
	<g>
		<path class="st1" d="M421.7,203.8c0,29.2-17.5,47.4-45.2,47.4c-27.8,0-45.3-18.2-45.3-47.4s17.5-47.4,45.3-47.4
			S421.7,174.6,421.7,203.8z M355,203.8c0,17.4,8.4,28.4,21.5,28.4c13,0,21.5-11,21.5-28.4c0-17.5-8.5-28.5-21.5-28.5
			S355,186.4,355,203.8z"/>
		<path class="st1" d="M494.3,249.6h-61.2V158h23.3v72.8h37.9V249.6z"/>
		<path class="st1" d="M542.1,158c27.7,0,43.9,16.1,43.9,45.3c0,29.3-16.3,46.3-43.9,46.3h-37.2V158H542.1z M528.2,230.8h10.9
			c15.2,0,23.3-9.2,23.3-27.5c0-17.2-8.6-26.5-23.3-26.5h-10.9V230.8z"/>
		<path class="st1" d="M168.5,359.6V268h62.3v18.8h-39v20.8h35.5v17.8h-35.5v34.2H168.5z"/>
		<path class="st1" d="M289.2,339.5h-30l-5.8,20.1h-23.7l30.8-91.6h28.5l30.8,91.6H295L289.2,339.5z M263.7,322.7h20.9l-10.2-35.3
			H274L263.7,322.7z"/>
		<path class="st1" d="M320.5,313.8c0-29.9,17.2-47.4,44.5-47.4c23.2,0,40.8,14.9,41.5,36.6H384c-1.1-10.8-8.8-17.9-19-17.9
			c-12.7,0-20.8,10.9-20.8,28.6c0,18,8,28.8,20.8,28.8c10.2,0,17.6-6.7,19.1-17.5h22.4c-1.1,21.8-18,36.1-41.6,36.1
			C337.6,361.2,320.5,343.7,320.5,313.8z"/>
		<path class="st1" d="M436.7,359.6v-72.8h-25.3V268h73.8v18.8h-25.3v72.8H436.7z"/>
		<path class="st1" d="M578.2,313.8c0,29.2-17.5,47.4-45.2,47.4c-27.8,0-45.3-18.2-45.3-47.4s17.5-47.4,45.3-47.4
			S578.2,284.6,578.2,313.8z M511.5,313.8c0,17.4,8.4,28.4,21.5,28.4c13,0,21.5-11,21.5-28.4c0-17.5-8.5-28.5-21.5-28.5
			S511.5,296.4,511.5,313.8z"/>
		<path class="st1" d="M612.9,359.6h-23.3V268h39.2c22.9,0,35.2,11.3,35.2,30.2c0,11.2-5.6,21.5-15.7,25.9l18.3,35.5h-26.2
			l-15.7-32.1h-11.9V359.6z M612.9,311.6h13.6c8.6,0,13.6-5,13.6-12.9c0-7.8-5.4-13.1-13.7-13.1h-13.6V311.6z"/>
		<path class="st1" d="M699.1,359.6v-31.5L667.6,268h25l18.2,38.1h0.4l18.2-38.1H754l-31.5,60.1v31.5H699.1z"/>
	</g>
</g>
</svg>
