<?xml version="1.0" encoding="utf-8"?>
<!-- Generator: Adobe Illustrator 24.0.3, SVG Export Plug-In . SVG Version: 6.00 Build 0)  -->
<svg version="1.1" id="Layer_1" xmlns="http://www.w3.org/2000/svg" xmlns:xlink="http://www.w3.org/1999/xlink" x="0px" y="0px"
	 viewBox="0 0 600 600" style="enable-background:new 0 0 600 600;" xml:space="preserve">
<style type="text/css">
	.st0{enable-background:new    ;}
	.st1{fill:none;stroke:#FFFFFF;stroke-width:3;stroke-miterlimit:10;}
	.st2{fill:none;stroke:#00FF00;stroke-width:3;stroke-miterlimit:10;}
</style>
<g id="Layer_3">
	<g class="st0">
		<path class="st1" d="M134.9,379.8c1.3,14.6,15.9,23.9,37,23.9c19.1,0,32.2-9.2,32.2-22.4c0-11.1-8.8-17.1-31.7-21.7l-26.5-5.3
			c-36.8-7-55.7-27-55.7-58.6c0-39.3,31.5-65,79.9-65c47.1,0,79.6,25.5,80.5,62.7h-47.2c-1.1-14.2-14.6-24.1-32.6-24.1
			c-18,0-29.8,8.5-29.8,21.9c0,11,8.9,17.4,30.1,21.6l25.9,5c39.7,7.7,57.5,25.6,57.5,57.5c0,41.9-32,67.2-84.6,67.2
			c-50.8,0-82.8-23.9-83.7-62.6H134.9z"/>
		<path class="st1" d="M293,437.1V236.2h51.1v200.9H293z"/>
		<path class="st1" d="M475.8,236c59.9,0,94,35.8,94,98.6c0,66-33.6,102.5-94,102.5h-84.4V236H475.8z M442.6,396h24.1
			c33.1,0,51.1-20.6,51.1-60.4c0-37.5-18.9-58.5-51.1-58.5h-24.1V396z"/>
	</g>
</g>
<g id="Layer_2_1_">
	<polygon class="st2" points="233.5,277.5 221.5,300.5 212.5,265.5 204.5,276.5 204.5,326.5 218.5,360.5 233.5,365.5 242.5,406.5 
		275.5,439.5 292.5,445.5 347.5,445.5 371.5,439.5 409.5,406.5 416.5,374.5 438.5,338.5 433.5,280.5 426.5,309.5 416.5,254.5 
		400.5,254.5 387.5,240.5 400.5,223.5 394.5,201.5 362.5,201.5 317.5,234.5 290.5,209.5 270.5,194.5 260.5,245.5 242.5,244.5 	"/>
	<polyline class="st2" points="433.5,280.5 438.5,225.5 418.5,185.5 396.5,166.5 396.5,133.5 390.5,154.5 384.5,134.5 365.5,129.5 
		369.5,148.5 306.5,117.5 274.5,123.5 248.5,164.5 222.5,191.5 207.5,224.5 220.5,215.5 205.5,260.5 204.5,276.5 	"/>
	<line class="st2" x1="228.1" y1="185.7" x2="228.1" y2="287.8"/>
	<line class="st2" x1="251.7" y1="245" x2="251.7" y2="157.7"/>
	<line class="st2" x1="281.8" y1="202.9" x2="281.8" y2="122.1"/>
	<line class="st2" x1="312.2" y1="120.3" x2="312.2" y2="229.6"/>
	<line class="st2" x1="340.7" y1="217.5" x2="340.7" y2="134.3"/>
	<line class="st2" x1="366.3" y1="146.9" x2="366.3" y2="201.5"/>
	<line class="st2" x1="392.7" y1="146.9" x2="392.7" y2="201.5"/>
	<line class="st2" x1="416.5" y1="254.5" x2="416.5" y2="183.5"/>
	<line class="st2" x1="392.7" y1="236.7" x2="437.5" y2="236.7"/>
	<line class="st2" x1="213.4" y1="236.7" x2="262.7" y2="236.7"/>
	<line class="st2" x1="279.6" y1="201.4" x2="426.5" y2="201.4"/>
	<line class="st2" x1="218" y1="201.4" x2="269.2" y2="201.4"/>
	<line class="st2" x1="242" y1="171.2" x2="402.3" y2="171.2"/>
	<line class="st2" x1="368.2" y1="142.1" x2="386.8" y2="142.1"/>
	<line class="st2" x1="262.7" y1="142.1" x2="356.5" y2="142.1"/>
</g>
</svg>
