<?xml version="1.0" encoding="utf-8"?>
<!-- Generator: Adobe Illustrator 24.0.3, SVG Export Plug-In . SVG Version: 6.00 Build 0)  -->
<svg version="1.1" id="Layer_1" xmlns="http://www.w3.org/2000/svg" xmlns:xlink="http://www.w3.org/1999/xlink" x="0px" y="0px"
	 viewBox="0 0 511.4 214.4" style="enable-background:new 0 0 511.4 214.4;" xml:space="preserve">
<style type="text/css">
	.st0{enable-background:new    ;}
	.st1{fill:none;stroke:#FFFFFF;stroke-width:0.75;stroke-miterlimit:10;}
	.st2{fill:none;stroke:#00FF00;stroke-width:2;stroke-miterlimit:10;}
</style>
<g class="st0">
	<path class="st1" d="M113.3,107.6H95L78,41.7h20l7.6,41.7h0.4l9.8-41.7h15l9.8,41.7h0.4l7.6-41.7h20l-17,66h-18.3l-9.8-37.8h-0.4
		L113.3,107.6z"/>
	<path class="st1" d="M208.7,94.5h-20.1l-3.4,13.1h-19.7l21.5-66h24.3l21.5,66h-20.7L208.7,94.5z M192.1,80.9h13.1L198.9,57h-0.4
		L192.1,80.9z"/>
	<path class="st1" d="M265.8,108.8c-20.9,0-33.3-12.3-33.3-34.2c0-21.6,12.4-34.1,32.8-34.1c16.5,0,28.9,9.8,30.3,23.2h-19
		c-1.3-4.8-5.7-8-11.3-8c-8.2,0-13.1,6.8-13.1,18.5c0,12,5.5,19.2,14,19.2c6.3,0,10.8-3.5,11.3-8.8l0.1-0.9h-10.1V70.9h28.7v8.7
		C296.4,97.6,285,108.8,265.8,108.8z"/>
	<path class="st1" d="M368.9,74.7c0,21.1-12.9,34.1-33.2,34.1c-20.4,0-33.2-13-33.2-34.1s12.9-34.2,33.2-34.2S368.9,53.6,368.9,74.7
		z M322.2,74.7c0,11.4,5.4,18.6,13.5,18.6s13.5-7.3,13.5-18.6S343.8,56,335.7,56C327.6,56,322.2,63.2,322.2,74.7z"/>
	<path class="st1" d="M376.5,107.6V41.7h15.1L417,75.9h0.4V41.7h18.3v66h-14.8L395.1,73h-0.4v34.7L376.5,107.6L376.5,107.6z"/>
</g>
<g id="car">
	<g id="body_1_">
		<polygon id="body" class="st2" points="112.8,142.3 109.5,145.6 111.2,160.7 113.3,164.7 120.8,168.5 137.7,169.8 139.2,154.7 
			145.9,145.1 158.4,138.4 169.5,138.4 180.6,143.2 188.2,154.1 190.6,171 317.6,169.6 319.4,156.9 324.1,147.9 333.3,140.6 
			346.2,138.4 359.8,142.9 367.7,153.3 369.5,165 400.3,159.7 406.3,153.1 406.3,139.1 401.7,129.9 401.8,123.8 396.3,113.2 
			390.6,110.5 364.5,107.2 331.5,93 318.3,89.8 272.9,87.9 261.3,87.9 245,89.4 232.4,92.7 193.2,112.3 186.7,113.4 182.1,113.9 
			143.6,122.1 132.1,125.8 122.2,130.4 118.3,133.2 115.3,138.7 		"/>
		<polygon id="window-l" class="st2" points="199.5,122.4 205.2,115.9 225.2,103.6 237.3,97.9 248.1,94.8 271.1,93.3 265.5,119.8 
			197.6,124.1 		"/>
		<polygon id="window-r" class="st2" points="277.9,93.3 307.4,94.4 318,96.4 322.3,99.2 341.1,116.8 277.2,119 		"/>
		<line id="window-bar" class="st2" x1="322.3" y1="99.2" x2="321.2" y2="117.4"/>
		<polygon id="wheel-r" class="st2" points="143.5,158.5 143.5,170.6 150.2,179.4 162.4,183.4 176.5,181 184.3,172.8 186.8,161.8 
			183.6,151.9 176,144.6 165.9,142.5 155.5,144.1 147.7,151.2 		"/>
		<polygon id="wheel-l" class="st2" points="324,154.7 322.6,165 325.5,174.6 336.4,181.6 349.3,182 360.4,175.6 364.9,164.3 
			363.1,153.5 356.4,145.7 346.9,141.9 336.2,142.9 328.4,148.1 		"/>
		<polygon class="st2" points="150.3,157.4 158.2,149.5 169.1,149.5 177.2,157.6 177.2,168.5 169.2,176.6 159.1,176.6 150.7,168.2 
					"/>
		<polygon class="st2" points="330.4,156.6 338.2,148.7 349.2,148.7 357.3,156.8 357.3,167.8 349.2,175.8 339.1,175.8 330.8,167.4 
					"/>
	</g>
	<g id="hori">
	</g>
	<g id="vert">
		<polyline class="st2" points="119,167.6 118.3,133.2 133,132.3 145.9,130.9 158.4,128.5 172.2,128 183.9,127 197.6,124.1 		"/>
		<polyline class="st2" points="133,169.5 133,132.3 141.4,122.8 		"/>
		<polyline class="st2" points="145.9,145.1 145.9,130.9 153.2,120.1 		"/>
		<polyline class="st2" points="158.4,138.4 158.4,128.5 165.1,117.6 		"/>
		<polyline class="st2" points="172.2,139.5 172.2,128 179.8,114.5 		"/>
		<polyline class="st2" points="183.9,147.9 183.9,127 193.2,112.3 		"/>
		<polyline class="st2" points="197.6,170.9 197.6,124.1 211.1,103.4 		"/>
		<line class="st2" x1="211.8" y1="170.8" x2="211.8" y2="123.1"/>
		<line class="st2" x1="225.3" y1="122.4" x2="225.3" y2="170.9"/>
		<line class="st2" x1="239.8" y1="121.4" x2="239.8" y2="171"/>
		<line class="st2" x1="255.2" y1="120.4" x2="255.2" y2="170.3"/>
		<line class="st2" x1="267.5" y1="110.7" x2="267.5" y2="170.2"/>
		<line class="st2" x1="282.2" y1="119" x2="282.2" y2="170"/>
		<line class="st2" x1="297.1" y1="118.3" x2="297.1" y2="170.2"/>
		<line class="st2" x1="311.4" y1="118.3" x2="311.4" y2="169.7"/>
		<line class="st2" x1="326.9" y1="117.4" x2="326.9" y2="145.7"/>
		<polyline class="st2" points="341.1,139.3 341.1,116.8 397.3,116.8 397.3,160.2 		"/>
		<polyline class="st2" points="355,141.3 355,116.8 369.2,107.9 		"/>
		<polyline class="st2" points="369.2,161.9 369.2,116.8 383.7,109.6 		"/>
		<polyline class="st2" points="383.7,162.5 383.7,116.8 396.3,113.2 		"/>
		<polyline class="st2" points="218.3,107.9 225.2,103.6 239.8,90.8 		"/>
		<line class="st2" x1="239.8" y1="97.2" x2="255.2" y2="88.5"/>
		<line class="st2" x1="211.8" y1="111.9" x2="225.3" y2="96.3"/>
		<line class="st2" x1="267.5" y1="87.9" x2="255.2" y2="93.3"/>
		<line class="st2" x1="267.5" y1="93.6" x2="282.2" y2="88.5"/>
		<line class="st2" x1="297.1" y1="94" x2="311.4" y2="89.5"/>
		<line class="st2" x1="282.2" y1="93.3" x2="297.1" y2="88.9"/>
		<line class="st2" x1="311.4" y1="95.1" x2="326.9" y2="91.9"/>
		<line class="st2" x1="341.1" y1="97.1" x2="326.9" y2="103.6"/>
		<line class="st2" x1="356" y1="103.6" x2="341.1" y2="116.8"/>
		<line class="st2" x1="115.3" y1="138.7" x2="406.3" y2="138.7"/>
		<line class="st2" x1="401.7" y1="129.9" x2="153.2" y2="129.9"/>
		<line class="st2" x1="364.1" y1="148.7" x2="406.3" y2="148.7"/>
		<line class="st2" x1="184.8" y1="148.7" x2="324.1" y2="148.7"/>
		<line class="st2" x1="109.8" y1="148.7" x2="143.5" y2="148.7"/>
		<line class="st2" x1="368.4" y1="158.3" x2="401.7" y2="158.3"/>
		<line class="st2" x1="188.5" y1="158.3" x2="319.3" y2="158.3"/>
		<line class="st2" x1="110.9" y1="158.3" x2="138.9" y2="158.3"/>
		<line class="st2" x1="127.5" y1="128" x2="205.2" y2="115.9"/>
	</g>
</g>
</svg>
