<?xml version="1.0" encoding="utf-8"?>
<!-- Generator: Adobe Illustrator 24.0.3, SVG Export Plug-In . SVG Version: 6.00 Build 0)  -->
<svg version="1.1" xmlns="http://www.w3.org/2000/svg" xmlns:xlink="http://www.w3.org/1999/xlink" x="0px" y="0px"
	 viewBox="0 0 511.4 214.4" style="enable-background:new 0 0 511.4 214.4;" xml:space="preserve">
<style type="text/css">
	.st0{fill:none;stroke:#FFFFFF;stroke-width:3;stroke-miterlimit:10;}
	.st1{font-family:'SFProDisplay-Black';}
	.st2{font-size:120px;}
	.st3{fill:none;stroke:#00FF00;stroke-width:2;stroke-miterlimit:10;}
</style>
<g id="Layer_7">
	<text transform="matrix(1 0 0 1 24.2227 112.1427)" class="st0 st1 st2">WAGON</text>
</g>
<g id="car">
	<g id="body_1_">
		<polygon id="body" class="st3" points="72.2,150.8 68,155.1 70.1,174.4 72.9,179.6 82.5,184.5 104.1,186.1 106.1,166.7 
			114.6,154.4 130.7,145.8 144.9,145.8 159.1,152 168.9,166 171.9,187.6 334.8,185.9 337.1,169.6 343.1,158 354.8,148.7 
			371.4,145.8 388.8,151.6 398.9,164.9 401.3,180 440.8,173.1 448.5,164.7 448.5,146.8 442.5,134.9 442.7,127.2 435.6,113.6 
			428.3,110.1 394.9,105.9 352.6,87.7 335.6,83.6 277.4,81.1 262.6,81.1 241.7,83.1 225.5,87.3 175.3,112.4 166.9,113.8 
			161.1,114.5 111.7,125 97,129.7 84.3,135.6 79.3,139.2 75.4,146.2 		"/>
		<polygon id="window-l" class="st3" points="183.3,125.4 190.7,117 216.3,101.2 231.8,94 245.7,90 275.1,88.1 268,122 180.9,127.5 
					"/>
		<polygon id="window-r" class="st3" points="283.8,88.1 321.6,89.4 335.2,92 340.7,95.6 364.8,118.2 282.9,121 		"/>
		<line id="window-bar" class="st3" x1="340.7" y1="95.6" x2="339.3" y2="119"/>
		<polygon id="wheel-r" class="st3" points="111.5,171.6 111.5,187.1 120.1,198.4 135.8,203.5 153.9,200.4 163.8,190 167.1,175.9 
			163,163.1 153.2,153.8 140.3,151.1 126.9,153.1 117,162.2 		"/>
		<polygon id="wheel-l" class="st3" points="342.9,166.8 341.2,179.9 344.9,192.3 358.8,201.2 375.4,201.7 389.6,193.5 395.4,179.1 
			393,165.2 384.5,155.2 372.3,150.3 358.6,151.6 348.6,158.3 		"/>
		<polygon class="st3" points="120.3,170.2 130.4,160.1 144.4,160.1 154.8,170.5 154.8,184.5 144.5,194.8 131.5,194.8 120.8,184 		
			"/>
		<polygon class="st3" points="351.1,169.2 361.2,159.1 375.2,159.1 385.6,169.5 385.6,183.5 375.3,193.8 362.3,193.8 351.6,183 		
			"/>
	</g>
	<g id="hori">
	</g>
	<g id="vert">
		<polyline class="st3" points="80.2,183.3 79.3,139.2 98.1,138 114.6,136.3 130.7,133.2 148.3,132.5 163.3,131.2 180.9,127.5 		"/>
		<polyline class="st3" points="98.1,185.7 98.1,138 108.9,125.9 		"/>
		<polyline class="st3" points="114.6,154.4 114.6,136.3 124,122.4 		"/>
		<polyline class="st3" points="130.7,145.8 130.7,133.2 139.3,119.2 		"/>
		<polyline class="st3" points="148.3,147.3 148.3,132.5 158.1,115.2 		"/>
		<polyline class="st3" points="163.3,158 163.3,131.2 175.3,112.4 		"/>
		<polyline class="st3" points="180.9,187.5 180.9,127.5 198.2,101 		"/>
		<line class="st3" x1="199.1" y1="187.4" x2="199.1" y2="126.3"/>
		<line class="st3" x1="216.4" y1="125.3" x2="216.4" y2="187.5"/>
		<line class="st3" x1="235" y1="124.1" x2="235" y2="187.6"/>
		<line class="st3" x1="254.7" y1="122.8" x2="254.7" y2="186.8"/>
		<line class="st3" x1="270.5" y1="110.4" x2="270.5" y2="186.6"/>
		<line class="st3" x1="289.3" y1="121" x2="289.3" y2="186.4"/>
		<line class="st3" x1="308.4" y1="120.1" x2="308.4" y2="186.6"/>
		<line class="st3" x1="326.8" y1="120.1" x2="326.8" y2="186"/>
		<line class="st3" x1="346.7" y1="119" x2="346.7" y2="155.2"/>
		<polyline class="st3" points="364.8,147 364.8,118.2 436.9,118.2 436.9,173.8 		"/>
		<polyline class="st3" points="382.7,149.6 382.7,118.2 400.9,106.7 		"/>
		<polyline class="st3" points="400.9,176 400.9,118.2 419.5,109 		"/>
		<polyline class="st3" points="419.5,176.8 419.5,118.2 435.6,113.6 		"/>
		<polyline class="st3" points="207.4,106.7 216.3,101.2 235,84.8 		"/>
		<line class="st3" x1="235" y1="93.1" x2="254.7" y2="81.9"/>
		<line class="st3" x1="199.1" y1="111.9" x2="216.4" y2="91.9"/>
		<line class="st3" x1="270.5" y1="81.1" x2="254.7" y2="88.1"/>
		<line class="st3" x1="270.5" y1="88.4" x2="289.3" y2="81.9"/>
		<line class="st3" x1="308.4" y1="89" x2="326.8" y2="83.2"/>
		<line class="st3" x1="289.3" y1="88.1" x2="308.4" y2="82.4"/>
		<line class="st3" x1="326.8" y1="90.4" x2="346.7" y2="86.2"/>
		<line class="st3" x1="364.8" y1="92.9" x2="346.7" y2="101.2"/>
		<line class="st3" x1="383.9" y1="101.2" x2="364.8" y2="118.2"/>
		<line class="st3" x1="75.4" y1="146.2" x2="448.5" y2="146.2"/>
		<line class="st3" x1="442.5" y1="134.9" x2="124" y2="134.9"/>
		<line class="st3" x1="394.4" y1="159.1" x2="448.5" y2="159.1"/>
		<line class="st3" x1="164.5" y1="159.1" x2="343.1" y2="159.1"/>
		<line class="st3" x1="68.4" y1="159.1" x2="111.5" y2="159.1"/>
		<line class="st3" x1="399.9" y1="171.4" x2="442.5" y2="171.4"/>
		<line class="st3" x1="169.3" y1="171.4" x2="336.9" y2="171.4"/>
		<line class="st3" x1="69.8" y1="171.4" x2="105.7" y2="171.4"/>
		<line class="st3" x1="91" y1="132.5" x2="190.7" y2="117"/>
	</g>
</g>
</svg>
